# xmcd
#
# Track frame offsets:
#	150
#	24273
#	41356
#	61124
#	76937
#	91075
#	102528
#	119063
#	134878
#	148311
#	162916
#	173466
#	185186
#	197481
#	208421
#	222226
#	234504
#	248752
#	264247
#	278360
#	294815
#
# Disc length: 4188 seconds
#
# Revision: 1
# Processed by: cddbd v1.5.2PL0 Copyright (c) Steve Scherf et al.
# Submitted via: audiograbber 1.83.01
#
DISCID=2e105a15
DTITLE=Various Artist - Halland's Country Hits Volume 2
DYEAR=1900
DGENRE=
TTITLE0=Judds - Love Can Build A Bridge
TTITLE1=Judds - One Hundred And Two
TTITLE2=Judds - Young Love (Strong Love)
TTITLE3=Hal Ketchum - I Know Where Love Lives
TTITLE4=Patty Loveless - On Down The Line
TTITLE5=Patty Loveless - Timber I'm Falling
TTITLE6=Barbara Mandrell - I Was Country When Country Was Cool
TTITLE7=Mac McAnally - Back Where I Come From
TTITLE8=Mel McDaniel - Baby's Got Her Blue Jeans On
TTITLE9=Mel McDaniel - I Call It Love
TTITLE10=Mel McDaniel - Louisiana Saturday Night
TTITLE11=Ronnie McDowell - In A New York Minute
TTITLE12=Ronnie McDowell - Older Women (Make Beautiful...)
TTITLE13=Reba McEntire - Can't Even Get The Blues
TTITLE14=Reba McEntire - Cathy's Clown
TTITLE15=Reba McEntire - How Blue
TTITLE16=Reba McEntire - Is There Life Out There
TTITLE17=Reba McEntire - Little Girl
TTITLE18=Reba McEntire - Little Rock
TTITLE19=Reba McEntire - Love Will Find Its Way To You
TTITLE20=Reba Mcentire - The Night The Lights Went Out In Georgia
EXTD=
EXTT0=
EXTT1=
EXTT2=
EXTT3=
EXTT4=
EXTT5=
EXTT6=
EXTT7=
EXTT8=
EXTT9=
EXTT10=
EXTT11=
EXTT12=
EXTT13=
EXTT14=
EXTT15=
EXTT16=
EXTT17=
EXTT18=
EXTT19=
EXTT20=
PLAYORDER=
